<?xml version="1.0" encoding="UTF-8"?>
<svg id="Layer_1" xmlns="http://www.w3.org/2000/svg" version="1.1" viewBox="0 0 64 64">
  <!-- Generator: Adobe Illustrator 29.7.1, SVG Export Plug-In . SVG Version: 2.1.1 Build 8)  -->
  <defs>
    <style>
      .st0 {
        fill: #111;
      }

      .st1 {
        fill: #fff;
      }
    </style>
  </defs>
  <rect class="st0" width="64" height="64" rx="12" ry="12"/>
  <path class="st1" d="M20.4,50.3c0,0,0-.1,0-.2,0-.2,0-.2,0-.3,0-.3.3-.3.3-.4s-.2,0-.2,0v-.6c0,0,0-.2,0-.2s0-.2-.1-.2v-1.1c0,0-.1,0-.1,0s0,0,.1-.1v-.7c.1,0,.1-.1.1-.2s0-.2,0-.2v-.7c0-.2.2,0,.2-.3,0,0-.2.1-.2.2h0c-.1,0-.2-.1-.2-.2,0-.2.2-.2.2-.3s-.2-.5-.2-.7l.6-.6c-.3,0-.1.1-.3.1s-.2,0-.2-.1v-1.4c0,0,.3-.5.3-.5h0c0-.1-.2-.2-.2-.3v-1s-.1,0-.1,0v-1.6s0,0,0,0v-.6s0-.1,0-.1v-1.1c.2,0,.2-.2.2-.3s0-.2-.2-.2v-.9s.1-.1.1-.1v-.5c.1,0,.1-.1.1-.2,0-.1,0-.2-.2-.3v-.8s.2-.2.2-.2v-.5c-.2-.1-.2-.2-.2-.3,0-.2,0-.2,0-.3s0-.1,0-.3c0-.5.8-.3.8-.6s0-.2-.1-.3h-.4q0,0-.1,0c-.2,0-.2-.2-.2-.3s0-.4.2-.5v-1.3s0,0,0,0v-.6c0,0,0-.2,0-.2,0-.2,0-.2,0-.3,0-.3.2-.6.2-1-.1,0,0,.3-.2.3s-.2-.1-.2-.1v-.6s.1,0,.1,0v-.8c.1,0,.1,0,.1-.1s0-.1,0-.2v-.6c0,0,0,0,0-.1,0-.2-.2-.2-.2-.3l.5-.5c0-.1-.2-.3-.2-.5s0-.1,0-.1v-.6c-.1,0,0-.2,0-.2,0,0,0-.2,0-.2v-.5s0,0,0,0v-.8c0-.2.6-.2.6-.5s-.4,0-.4-.3v-1h.3s0-.2,0-.2h0c0-.2,0-.4,0-.4h.2s0-.3,0-.3h-.2s0-.3,0-.3c0-.1.3-.6.5-.6,0-.2,0-.5.2-.6v-.9s-.4,0-.4,0c0,.5-.6.5-.5,1h0c-.1,0-.2-.3-.2-.3,0-.1,0-.1,0-.2s-.3-.1-.3-.3,0-.2,0-.3,0-.2,0-.3,0-.1,0-.2,0-.1,0-.2v-.8s0,0,0,0v-.8c0,0,0-.1,0-.1h0c0-.1.4-.5.4-.5h0c.2,0,.2.2.2.3h0c-.3.2-.3.3-.3.6s0,.2,0,.2c0,0,.2.4.2.5,0,.2-.3.5-.3.8h.5c0-.2.1-.2.1-.3s0-.1,0-.3.1-.2.2-.2.1,0,.2,0c0-.3-.1-.3-.1-.5,0-.3.3-1.6.7-1.6,0,0,.1,0,.2.1h.9c0-.1,0-.1.1-.1.1,0,.1.1.3.1s.1,0,.1-.1h.7c0,.2.3.2.4.2h.2s0-.1,0-.1h.5s0-.1,0-.1h1.3c0,.1.1.1.2.1.1,0,.1-.1.2-.1.2,0,.2.2.3.2s.3-.2.5-.2h.2s0,.1,0,.1h1.1c0,.2.5.2.6.2h0c0,0,.1-.2.2-.2h.7c0,0,0-.1,0-.1.1,0,.1.2.2.2s.3-.2.4-.2c.2,0,.4.2.6.2s.1,0,.3,0,.1,0,.2,0h.4c0-.1.3-.2.4-.2.4,0,.6.7.8.7,0,0,0-.5.2-.5s.2.2.3.2.1,0,.2,0,.1,0,.1,0h1c0,0,0,0,0,0,.1,0,.6.3.6.5h.9c0,.2.1.2.3.2s.2-.1.3-.1.3.1.3.3-.1.2-.2.2c-.2,0-.2,0-.5,0v.2s.5,0,.5,0c0,0,.1,0,.2,0s.1,0,.2,0h.2c.4,0,1.9.9,2,1.4l.8.8c0,.3.2.3.2.6s-.3.1-.3.3,0,.2.2.2,0,0,.2,0,.3,0,.3.1v.6c.3,0,.2.7.5.7v.7c.2,0,0,.4.2.5v.4s0,0,0,0v.5c.3,0,0,.5.3.6v.6s0,0,0,0v.5c.1,0,.2.5.2.6s0,0-.1,0v.9s0,0,0,0v.5s0,0,0,0v.6c-.2,0-.2.2-.2.4s.2.2.2.4,0,.1,0,.2c0,.2,0,.2,0,.5-.2,0-.2-.2-.3-.2s-.3.2-.3.4.2.2.3.2c.2,0,.2-.1.4-.1v.3c0,0,0,0,0,0v.8s0,0,0,0v.4c-.1,0,0,.2,0,.2,0,.2,0,.2,0,.3s-.2.1-.2.3.2.5.2.7-.1.3-.2.4v.6c.3.2,0,.6.3.7v.7c-.2,0,0,.6-.2.5v.6c0,0,0,.1,0,.2,0,.1,0,.1,0,.2,0,.2,0,.2-.2.3v.9c.2,0,.3,0,.3.3s0,.1,0,.2,0,.1,0,.2c0,.2-.2.2-.2.3s.1.2.2.2v1.4c0,0,0,.1,0,.2,0,.1,0,.1,0,.3,0,0,0,.2,0,.2v.4c0,0,0,.1,0,.2,0,.2-.2.3-.2.5s.2.3.2.6,0,.2,0,.2v.8c0,0,0,0,0,.1s0,.2-.1.2v.6c0,0,0,0,0,.1,0,.2.2.2.2.4s0,.1-.1.1v.6c0,0,0,.1,0,.2s0,.1,0,.1v.7s-.1,0-.1,0v.7s-.2.2-.2.2v.6c-.1,0-.3,1-.8,1,0,.2.2.2.2.3,0,1-1.5,1.5-1.5,2.3l-1,1c-1,.2-1.9,1.6-3.1,1.6,0-.2,0-.2,0-.3s0,0,0-.1c0-.1,0-.1,0-.2h0c0-.1-.5-.7-.5-.7h0c0-.5.3-.7.3-1-.6,0-.5.3-.9.7h0c0,.6.6.7.5,1.4,0,0,0,.2,0,.2-.3,0-.3,0-.6,0h-.1s-.6.5-.6.5c-.1,0-.2-.2-.3-.2s-.1,0-.1.1h-.6q0,0-.1,0c0,0,0,0-.2,0s-.1,0-.1,0h-.5c0-.1-.2,0-.3-.2h-.6c0,0-.3.2-.3.2,0,0,0,0,0,0h-.7s0,0,0,0h-1c0-.2-.2-.2-.3-.2-.2,0-.5.2-.6.2s-.6,0-.6-.2h-1.2c0-.5-.3-.6-.7-.6,0,.2.2.2.2.5s-.2.2-.3.2-.5-.2-.6-.4h-.2c0,.3,0,.4-.3.4s-.2,0-.2,0h-.7c0-.5.9-.5.9-1.1s0-.2,0-.2c-.2-.1-.2-.4-.5-.4-.2,0-.2.1-.6.1v.2c0,.2,0,.7.3.6v.3h-.4c0,.4-.5.4-.6.6h-.8s0,0,0,0h-1.5q0,0-.1,0c-.7,0-.7-.7-1-.8v-.6ZM20.6,47.4h0s0,0,0,0h0s0,0,0,0ZM20.7,42.4h.3s0-.3,0-.3c-.2,0-.3.1-.3.3ZM20.9,50.5h0c0,0,0-.2,0-.2,0-.1,0,0,0-.2h-.3c0,.1,0,.3.2.3ZM20.8,35h0s0-.2,0-.2h0s0,.2,0,.2ZM20.9,25.9h0s0-.2,0-.2h0s0,.2,0,.2ZM20.9,35.5c.1,0,.2-.1.2-.2h-.2s0,.2,0,.2ZM20.9,41.7h.3s0,0,0,0h-.3s0,0,0,0ZM20.9,46.8h0s0,0,0,0h0s0,0,0,0ZM21,50.8h.3c0-.1-.2-.2-.2-.2h-.1s0,.2,0,.2ZM24.3,27.4c0,.2.7.3.8.3,0-.8-.8-1.2-.9-1.8l-.6-.6c0-.2.2-.3.2-.5h0c-.4-.1-1-.8-1-1.2l-.5-.5c0-.4-.4-.7-.4-1.1s.2-.2.2-.3h0c0,0-.5-.5-.5-.5-.2,0-.2-.2-.3-.2s-.2,0-.2.2v.4c0,0,1.2,2.2,1.2,2.3-.3,0-.5-.3-.7-.3s-.1.1-.1.2c0,.2.6,1.2.7,1.2s.2-.3.2-.3c0-.2,0-.2,0-.3v-.2c0,0,.2-.1.2-.1.2,0,1.1,1.7,1.1,1.9l.6.6c0,0,0,.2.1.2v.7ZM21.1,26.6h0s0-.2,0-.2h0s0,.2,0,.2ZM21.1,29.2c.2,0,.2-.2.2-.3-.2,0-.2.2-.2.3ZM21.3,49c.2,0,.2-.2.2-.3h-.3c0,0,0,.3.2.3ZM21.2,23.1h0s0,0,0,0h0s0,0,0,0ZM21.2,25h0s0,0,0,0h0s0,0,0,0ZM21.2,26.7h0s0,0,0,0h0s0,0,0,0ZM21.6,15h.5s0-.7,0-.7c-.1,0-.6.3-.6.5s.1.2.1.3ZM21.5,50.2h0s0-.1,0-.1h0s0,.1,0,.1ZM21.6,32.1h0s0,0,0,0h0s0,0,0,0ZM21.6,33.3h.2s0-.2,0-.2h-.2s0,.2,0,.2ZM21.6,38.8h.5s0-.1,0-.1c0,0,.3,0,.3,0h0c0,0-.1-.2-.1-.2h-.8s0,.3,0,.3ZM21.6,42.6h0s0,0,0,0h0s0,0,0,0ZM21.8,18.6h0s0,0,0,0h0s0,0,0,0ZM22,49.6c0,0,0-.2,0-.2,0,0,.2-.2.2-.2,0,0-.2-.3-.2-.3-.2,0-.3.2-.3.4s0,.3.2.3ZM21.9,32.6h0s0-.2,0-.2h0s0,.2,0,.2ZM21.9,41.5c.2,0,.2-.3.2-.5h-.2s0,.5,0,.5ZM21.9,44.5h.5c0-.2-.2-.3-.3-.3h-.1s0,.3,0,.3ZM22.1,35.6h0s0-.3,0-.3h0s0,.3,0,.3ZM22.2,19.9h.2s0,0,0,0h-.2s0,0,0,0ZM22.2,21.4h.2s0-.2,0-.2h-.2s0,.2,0,.2ZM22.2,43.1h.3s0-.5,0-.5c0-.1-.3-.2-.3-.2,0,.2.1.2.1.3s-.1,0-.1.3ZM22.3,13.3h0s0,0,0,0h0s0,0,0,0ZM22.3,48.5h0s0-.2,0-.2h0s0,.2,0,.2ZM22.5,27.1h0s0,0,0,0h0s0,0,0,0ZM22.5,32.4h0s0-.2,0-.2h0s0,.2,0,.2ZM22.6,47.2h0s0,0,0,0h0s0,0,0,0ZM23.4,27.3h.2c0-.1,0-.1,0-.2s0-.1,0-.2c0-.2-.3-.4-.3-.6s0-.1,0-.3h-.6c0,.3-.1.3-.1.5,0,.3.6.6.7.8ZM23,44.6c0,0,.2,0,.2-.1,0-.2-.3-.2-.3-.2,0,.1,0,.3.2.3ZM23,42.7h.1s0,0,0,0h-.1s0,0,0,0ZM23,45.5h.3s0-.3,0-.3c-.2,0-.3.2-.3.3ZM23.6,33.5c0-.2-.2-.5-.4-.5,0,.2.2.5.4.5ZM23.2,43.6h0s0,0,0,0h0s0,0,0,0ZM23.7,49.6v-.2s-.3-.4-.3-.4h-.1c0,.3.2.6.5.6ZM23.3,36.1h0s0-.1,0-.1h0s0,.1,0,.1ZM23.6,24.1c0,0,.2,0,.2-.2h-.5c0,.1.2.2.3.2ZM23.4,42.1h.3s0-.3,0-.3c-.2,0-.3.1-.3.3ZM23.4,43.1h.2s0-.3,0-.3c-.2,0-.2.2-.2.3ZM23.4,19.8h.3s0,0,0,0h-.3s0,0,0,0ZM23.4,48.1h.3c0-.1-.2-.2-.3-.2h0s0,.2,0,.2ZM23.5,31.3c.2,0,.2-.1.3-.1s0,0,.1,0v-.2s-.4,0-.4,0v.2ZM23.6,15.2h0s0,0,0,0h0s0,0,0,0ZM23.6,17.8c.1,0,.2-.1.2-.2h-.2s0,.2,0,.2ZM23.9,33.7c.1,0,.2,0,.2-.2,0,0-.1,0-.2,0-.1,0-.1-.1-.3-.1,0,.2.1.2.2.2ZM23.8,28.4c.2,0,.5-.2.5-.4s0-.3-.3-.3h-.2s0,.7,0,.7ZM23.9,28.9h0s0,0,0,0h0s0,0,0,0ZM24.1,34.6h.1c.2,0,.3,0,.3-.3s0-.3-.1-.3h-.6c0,.3.3.3.3.6ZM23.9,39.7h0s0-.2,0-.2h0s0,.2,0,.2ZM24.2,49.9v-.2s-.3,0-.3,0c0,.2.2.2.3.2ZM24,15.6h.3c0-.1-.1-.2-.2-.2h0s0,.2,0,.2ZM24,19.8h0s0,0,0,0h0s0,0,0,0ZM24,31.5h0s0-.2,0-.2h0s0,.2,0,.2ZM24,36.6c.2,0,.6-.7.6-.7,0-.1,0-.2-.2-.2h-.1s-.3.3-.3.3v.2c0,.2,0,.1,0,.2s0,.1,0,.2ZM24.1,32.5c.2,0,.3-.2.3-.3-.2,0-.3.2-.3.3ZM24.4,48.1h.7s.1-.1.1-.1v-.5c-.2,0-.2.1-.3.1s-.1,0-.2,0-.1,0-.2,0-.1-.2-.3-.2c0,.3.3.3.3.7ZM24.1,33.2h0s0,0,0,0h0s0,0,0,0ZM24.7,40.4c.1,0,.2,0,.2-.2,0-.2-.2-.5-.3-.5h-.1s-.3.3-.3.3h0c0,.2.5.3.6.3ZM24.4,29.3h.3s0-.5,0-.5h-.5c0,.2.1.2.2.5ZM24.2,43.1h.5c0,0,0-.3-.2-.3-.2,0-.3.2-.3.3ZM24.3,40.9h.2s0,0,0,0h-.2s0,0,0,0ZM24.4,19.7h.4s0,0,0,0h-.4s0,0,0,0ZM24.4,23.5h.2s0,0,0,0h-.2s0,0,0,0ZM24.4,37.4h0s0,0,0,0h0s0,0,0,0ZM24.5,14.4h.3c0-.1-.2-.2-.2-.2h-.1s0,.2,0,.2ZM24.6,33.7h0s0-.2,0-.2h0s0,.2,0,.2ZM24.6,36.7h.2c0,0-.1-.2-.2-.2h0s0,.2,0,.2ZM24.7,18.2c.1,0,.2-.1.2-.2h-.2s0,.2,0,.2ZM24.7,39h.2s0,0,0,0h-.2s0,0,0,0ZM24.8,36.9h.2s0-.2,0-.2h-.2s0,.2,0,.2ZM24.8,38.1h.1s0,0,0,0h-.1s0,0,0,0ZM24.9,16.3h.3s0-.3,0-.3c-.2,0-.3.1-.3.3ZM26,30.2v-.8c-.2,0-.1-1-.5-1-.1,0-.5,0-.5.2h0c.4.4.5,1.5.9,1.5ZM25.1,44.5h.1s.5-.5.5-.5h0c0-.2-.1-.2-.2-.2h-.1c0,.4-.3.4-.3.7ZM25.1,49.1h.3s0-.2,0-.2c-.1,0-.3,0-.3.2ZM25.1,13.3h.2s0-.2,0-.2h-.2s0,.2,0,.2ZM25.3,38.9c.1,0,.2,0,.2-.2s-.1-.2-.1-.6h-.2s0,.5,0,.5q0,0,0,.1c0,.1.1.2.2.2ZM25.2,20.1h0s0-.2,0-.2h0s0,.2,0,.2ZM25.2,37.5h0s0,0,0,0h0s0,0,0,0ZM25.2,45.5c.1,0,.5-.1.5-.3h0c0,0-.3-.2-.4-.2v.5ZM25.3,24.9c.2,0,.5-.2.5-.5-.1,0-.5.3-.5.5ZM25.3,32.6h.2s0-.1,0-.1h-.2s0,.1,0,.1ZM25.3,42.6c.2,0,.2-.2.2-.3h-.2s0,.3,0,.3ZM25.3,47.1h.5s0,0,0,0l-.4-.3h0s0,.4,0,.4ZM25.4,19.6c.2,0,.4,0,.4-.3-.2,0-.4.2-.4.3ZM25.4,22.1h.2s0-.2,0-.2h-.2s0,.2,0,.2ZM25.4,32.2h0s0,0,0,0h0s0,0,0,0ZM25.4,36.1h0s0-.2,0-.2h0s0,.2,0,.2ZM25.6,39.4h0s0,0,0,0h0s0,0,0,0ZM26.9,32.2h.5c0-.3-.2-.3-.2-.6s0-.1,0-.2v-.5c-.5,0-.6-.6-.6-1h0c0,0-.6.5-.6.5-.1,0-.1,0-.3,0,0,.5,1.2,1.1,1.3,1.8ZM27.3,35.1h.1c.2,0,0-.2.2-.2v-.2c0-.5-.5-.7-.8-1.1v-.2c0-.2,0-.2,0-.3,0-.3-1-1.9-1-1.9,0,0-.2.1-.2.1v.5c.1,0,.5.7.5.8,0,.2,0,.2,0,.3v.2c.3,0,1.2,1.7,1.2,2ZM25.8,50.4h.2c0-.1,0-.1,0-.2,0-.2,0-.2,0-.3,0-.2,0-.3-.2-.3s-.2.1-.2.2c0,.2.2.2.2.6ZM26.2,34.5c-.4,0-.5.8-.5.9h.4c0,0,.2-.1.2-.1v-.6c.1,0,.1-.2.1-.2h-.2ZM25.8,37.9c.2,0,.2-.2.2-.3-.2,0-.2.2-.2.3ZM25.8,45h.2s0-.5,0-.5c-.1,0-.2.3-.2.5ZM25.8,20.1h.2s0,0,0,0h-.2s0,0,0,0ZM25.8,41.9h0s0,0,0,0h0s0,0,0,0ZM25.9,47.4c.2,0,.3-.2.3-.3-.2,0-.3.2-.3.3ZM26.1,27.8v-.4c-.1,0-.2.1-.2.2,0,.1,0,.2.2.2ZM26,41h0s0,0,0,0h0s0,0,0,0ZM26,48.4h.2s0-.1,0-.1h-.2s0,.1,0,.1ZM26.3,12.9c.2,0,.2-.2.2-.3,0,0-.5,0-.5.2s.1.1.2.1ZM26.4,43.7v-.3s-.3,0-.3,0c0,.1.2.3.3.3ZM26.1,45.6h.3s0-.2,0-.2c0,0-.3.1-.3.2ZM26.2,16.4h0s0,0,0,0h0s0,0,0,0ZM26.2,20.9h0s0,0,0,0h0s0,0,0,0ZM26.2,38.6h.2s0,0,0,0h-.2s0,0,0,0ZM26.2,44.4h.1c0,.1,0,.1,0,.1.1,0,.4-.2.4-.3s0-.2-.2-.2h-.4s0,.4,0,.4ZM26.6,20c0-.3,0-.5-.4-.5,0,.2.2.5.4.5ZM26.5,21.1v-.2s-.2,0-.2,0c0,.1.1.2.2.2ZM26.3,22.2h0s0-.5,0-.5h0s0,.5,0,.5ZM26.3,36.7h0s0-.2,0-.2h0s0,.2,0,.2ZM26.3,39.6h0s0-.1,0-.1h0s0,.1,0,.1ZM26.9,25.5c0-.2-.3-.4-.5-.4,0,.3.1.4.5.4ZM26.4,38.3h0s0,0,0,0h0s0,0,0,0ZM26.4,45.2h0s0,0,0,0h0s0,0,0,0ZM26.5,35.5h0s0-.2,0-.2h0s0,.2,0,.2ZM26.5,43.7h.2s0-.2,0-.2c-.1,0-.2.2-.2.2ZM26.7,43h0s0,0,0,0h0s0,0,0,0ZM26.8,47.2h.2s0,0,0,0h-.2s0,0,0,0ZM27.3,20c0-.2-.2-.3-.4-.3,0,.2.2.3.4.3ZM26.9,28.4h.2s0-.2,0-.2c-.1,0-.2.1-.2.2ZM26.9,18.1c0,0,0,0,.2,0s0,0,.1,0v-.2s-.3,0-.3,0v.2ZM27.6,39.6v-.3s-.4-.3-.4-.3h-.2c0,.3.3.7.6.7ZM27.4,42.8c.1,0,.3,0,.3-.1,0-.2-.1-.3-.1-.6h-.6c0,.3.1.7.5.7ZM27,45.9h0s0,0,0,0h0s0,0,0,0ZM27.3,23.5v-.2s-.2,0-.2,0c0,.1.1.2.2.2ZM27.8,33.7c.1,0,.2-.1.2-.2,0-.2-.2-.5-.4-.5s-.4,0-.4.2c0,.1.5.5.6.5ZM27.1,35.6h0s0-.2,0-.2h0s0,.2,0,.2ZM27.3,38.3h.2s0-.3,0-.3h-.2s0,.3,0,.3ZM27.6,47.6v-.2s-.2,0-.2,0c0,.1.1.2.2.2ZM27.5,21h.2s0,0,0,0h-.2s0,0,0,0ZM27.7,13.5h0s0,0,0,0h0s0,0,0,0ZM27.7,30.3h.2s0-.2,0-.2h-.2s0,.2,0,.2ZM27.7,47.2h0s0-.2,0-.2h0s0,.2,0,.2ZM27.8,15.1h0s0,0,0,0h0s0,0,0,0ZM28.2,39.4c0-.2-.1-.4-.3-.4,0,.2.1.4.3.4ZM28.2,27.9c.2,0,.3-.4.3-.5h-.5c-.2,0-.1.2-.1.2v.2c0,0,.2.1.3.1ZM27.9,22.6h.2s0,0,0,0h-.2s0,0,0,0ZM28,45.4c0-.1.3-.3.3-.4-.2,0-.2.1-.5.1,0,0,.2.3.2.3ZM28.1,47.8h0s.5-.5.5-.5h0c0-.2,0-.4-.2-.4s-.6.3-.6.5,0,.4.2.4ZM28,22h0s0-.1,0-.1h0s0,.1,0,.1ZM28,25.6h.2s0,0,0,0h-.2s0,0,0,0ZM28.1,17.4c.2,0,.2-.2.2-.4-.2,0-.2.2-.2.4ZM33.8,45.7v.8c0,.2.7.3.8.3v-.5c-.2,0,0-.3-.2-.3v-.6c0,0-.1,0-.1,0h0c.1-.1.8-1.1.9-1.1l.6.5s0,0,.1,0c.3,0,.3-.3.7-.3h0c0-.2-.1-.5-.2-.5h-1.5c0-.3.3-.6.3-.9s0-.2,0-.3,0-.2.1-.2v-1.2c.1,0,0-.2,0-.2v-.2s0,0,0,0c0,0,0-.3,0-.3h.4s0-.2,0-.2h-.3c0,0,0-.4,0-.5,0,0,0,0,0,0v-.7c-.1,0-.1,0-.1-.2s0-.1,0-.1v-.6s0,0,0,0v-.8c.2,0,.2-.2.2-.4v-.2c0,0,0-.2,0-.2,0,0,0-.2,0-.2v-.4c0,0-.2-.4-.2-.5s0-.2.1-.2v-.8c.2,0,.3-.2.3-.4s-.3-.2-.3-.3c0-.2.2-.2.2-.4s-.2-.2-.2-.5,0-.2,0-.3-.2-.3-.2-.4.2-.3.2-.5,0-.3-.2-.4v-.7c.2-.1.2-.2.2-.3,0-.2,0-.2,0-.3s0-.2,0-.3,0-.2,0-.3c0-.3.5-.2.5-.5s-.1-.3-.3-.3,0,0-.1,0c-.1,0-.2,0-.2-.1s0,0,0-.1v-.7c0,0,0,0,0-.1s0-.2,0-.2v-.5s0,0,0,0v-1.1s.1-.1.1-.1h0c.2,0,.2.2.5.2,0-.6-.8-.7-.6-1.4h0c0,0,0-.8,0-.8h0c0,0,0-1,0-1h0c0-.1,0-1.6,0-1.6,0-.2.3,0,.3-.4-.1,0-.1,0-.3,0-.3,0-.7-1.1-.7-1.4,0,0-1.7-1.1-1.7-1.1h-.4q0,0-.1,0l-.5-.5h-.1c-.3,0-.5.3-.8.3s-.1,0-.2-.1h-1.6c0,.2-.2.3-.2.4,0,.2.2.3.2.5s0,.2,0,.3,0,.1,0,.3,0,.1,0,.2,0,.1,0,.2,0,.2,0,.2v.8c-.1,0-.1,0-.1.1s0,.2.1.2v.6s0,0,0,0v.6c0,0,0,.2,0,.2,0,.2,0,.2,0,.4,0,0,0,.2,0,.2v.5c0,0,0,0,0,0,0,.3-.3.1-.3.3s.2.2.2.4,0,.3-.1.2v.6s-.2.1-.2.2c0,.1.2,0,.2.2s0,.1,0,.2c0,.2,0,.6.2.6v.9c-.1,0-.2.6-.2.7,0,.2.2,1.1.3,1.1v.5c-.3.1-.2,1-.8,1h0c0,.3,0,.4.2.4s.2-.2.3-.2.2,0,.2.1v.6s-.1.1-.1.1h-.6s0,.2,0,.2c0,.1.1.1.2.1s.1,0,.2,0c.1,0,.2.1.2.2,0,.2-.2.2-.2.3s0,.2,0,.2v.5s0,0,0,0c0,0,0,.1,0,.2,0,.3.2.3.2.6s0,.3-.2.3-.3-.6-.3-.7c-.1,0-.2,0-.2.2s0,0,.1,0v.8c.3,0,.5.3.5.5s0,.4-.3.5v.2c.2,0,.2,0,.5,0v.6c-.3.2,0,.5-.6.5v.2c.2.1.6.6.6.8s0,.2,0,.2v.6c.2,0,.2.2.2.4v.2c0,.2-.2.2-.3.2v.4c.1,0,.2.5.2.6,0,.2-.2.2-.2.5s0,.1,0,.1v.9c-.1,0-.2.4-.2.5,0,.2.4.5.4.6,0,.5-.8.2-.8.7h0c0,0,.7.7.7.7v.6c-.1,0,0,.1,0,.1,0,.2,0,.2.2.3.1,0,.6.5.6.5.2,0,.3,0,.5-.3h0c.2,0,.1.3.2.3h0s.3-.3.3-.3h.7s0-.1,0-.1h.6c0-.2.5-.2.6-.2s.1,0,.3,0,.2,0,.3,0c.2,0,.7.1.7.2ZM28.1,32.6h0s0-.1,0-.1h0s0,.1,0,.1ZM28.1,46.4c.1,0,.2-.1.2-.2h-.2s0,.2,0,.2ZM28.2,23.6h.2s0-.3,0-.3c-.2,0-.2.2-.2.3ZM28.3,29.8h.2s0-.3,0-.3h-.2s0,.3,0,.3ZM28.8,49.2h.2s0,0,0,0h-.2s0,0,0,0ZM28.9,50.7h0s0-.2,0-.2h0s0,.2,0,.2ZM29.3,14.7v-.2s-.2,0-.2,0c0,.1.1.2.2.2ZM29.2,49.4s0,.1,0,.2c0,0,0,0,0,.1h.3c0-.1,0-.3-.2-.3h0ZM29.5,17.6c0-.2-.2-.2-.3-.2,0,.2.2.2.3.2ZM29.5,17h0s0,0,0,0h0s0,0,0,0ZM29.5,46.6h.2s0,0,0,0h-.2s0,0,0,0ZM29.9,13h0s0,0,0,0h0s0,0,0,0ZM30,47.6h0s0-.1,0-.1h0s0,.1,0,.1ZM30,48.7h0s0-.2,0-.2h0s0,.2,0,.2ZM30,50.6h.2s0,0,0,0h-.2s0,0,0,0ZM30.2,50.2h.2c0-.1,0-.2-.2-.2v.2ZM30.3,15.3h.2s0-.2,0-.2h-.2s0,.2,0,.2ZM30.4,13.9h.3c0-.1-.2-.2-.3-.2h0s0,.2,0,.2ZM30.4,15.8h0s0-.1,0-.1h0s0,.1,0,.1ZM31.3,48.5v-.3c-.4,0-.3.1-.7.1h0c.3.1.4.2.7.2ZM31,14.5h0s0,0,0,0h0s0,0,0,0ZM31.5,47c.1,0,.2-.1.2-.2s0-.2-.1-.2h0s0,.5,0,.5ZM31.5,49.6h0s0,0,0,0h0s0,0,0,0ZM31.6,13.9h.2s0,0,0,0h-.2s0,0,0,0ZM31.8,17h.3s0,0,0,0h-.3s0,0,0,0ZM32.1,16.1c.3,0,.5-.4.5-.7-.4,0-.5.4-.5.7ZM32.1,12.9h.2s0-.2,0-.2h-.2s0,.2,0,.2ZM32.2,46.1h0s0-.2,0-.2h0s0,.2,0,.2ZM32.6,46.7v-.3c0,0-.4,0-.4.2s.3.2.4.2ZM32.5,51.1c0,0,.1-.1.1-.2,0-.2-.2-.2-.3-.2,0,0,0,.3.2.3ZM32.8,13h.2s0,0,0,0h-.2s0,0,0,0ZM32.8,17.6h.3s0,0,0,0h-.3s0,0,0,0ZM32.8,51.1h.5c0-.2-.2-.3-.4-.3h0s0,.3,0,.3ZM33.3,46.1h.2c0-.1,0-.3-.2-.3h0s0,.3,0,.3ZM33.4,18.1h0s0,0,0,0h0s0,0,0,0ZM33.4,46.6h.2s0,0,0,0h-.2s0,0,0,0ZM33.4,47.9h.2s0-.2,0-.2c0,0-.2.1-.2.2ZM33.5,14.3h0s0,0,0,0h0s0,0,0,0ZM33.5,49.7h0s0,0,0,0h0s0,0,0,0ZM33.7,47.3h0s0,0,0,0h0s0,0,0,0ZM33.9,14.8c.2,0,.5-.1.5-.2-.2,0-.5,0-.5.2ZM34.2,44.7h0c0,0-.2,0-.2,0h0c0,0,.2,0,.2,0ZM35,49.5c0-.5-.5-.7-.4-1.2h-.1c-.2,0-.2.2-.2.3h0c0,.1.6.7.6.7,0,0,0,.2.2.2ZM34.4,51.2v-.3s-.2,0-.2,0c0,.1,0,.3.2.3ZM34.4,17.4h0s0-.2,0-.2h0s0,.2,0,.2ZM36,49c0-.2-.6-1.3-.8-1.3v-.6c0-.1-.2-.1-.3-.1h0s-.4.3-.4.3v.2c.7.3.3,1.5,1.4,1.4,0,0,.1,0,.2,0ZM34.8,15.8h0s0-.2,0-.2h0s0,.2,0,.2ZM34.8,45.5h0s0-.2,0-.2h0s0,.2,0,.2ZM34.8,46.1h.2c0-.1-.1-.2-.2-.2v.2ZM35.1,17c.2,0,.2-.2.2-.3h-.2s0,.3,0,.3ZM35.2,46.5h0c0,0,.3-.1.3-.1,0-.1-.1-.2-.2-.2h-.1s0,.3,0,.3ZM35.9,43.7v-.2c-.3,0-.3-.2-.6-.2,0,.2.4.4.6.4ZM35.3,50.5h.1s0-.2,0-.2h-.1s0,.2,0,.2ZM35.5,22.1h0s0-.3,0-.3h0s0,.3,0,.3ZM36.3,17.1v-.4s-.5,0-.5,0v-.5s0,0,0,0c0,0-.1.1-.1.1,0,0,0,.2,0,.2,0,.4.3.5.7.5ZM35.6,24.9h0s0,0,0,0h0s0,0,0,0ZM35.6,32.7h0s0-.2,0-.2h0s0,.2,0,.2ZM35.6,50.9h0s0,0,0,0h0s0,0,0,0ZM35.7,14.4c0,0,.5,0,.5-.2s0-.1-.1-.1c-.1,0-.3.2-.3.3ZM36,34.6v-.2s-.2,0-.2,0c0,0,.2.2.2.2ZM35.8,33.6h.2s0,0,0,0h-.2s0,0,0,0ZM35.8,47.4c.1,0,.2-.2.2-.2,0-.1,0-.2-.1-.2h0s0,.5,0,.5ZM36.1,30.6c0,0,.3,0,.3-.2,0-.2-.1-.5-.3-.5-.1,0-.2.3-.2.4s0,.2.2.2ZM36,37.9h0s0,0,0,0h0s0,0,0,0ZM36,40.9h0s0,0,0,0h0s0,0,0,0ZM36.4,16.1v-.5s-.3,0-.3,0c0,.2.1.5.3.5ZM36.1,17.9h0s0,0,0,0h0s0,0,0,0ZM36.5,33.2v-.2s-.3,0-.3,0c0,0,.3.2.3.2ZM36.2,42.4h.1s0-.2,0-.2h-.1s0,.2,0,.2ZM36.5,27.8c.1,0,.3,0,.3-.2h-.5c0,.1.2.2.2.2ZM36.3,19.2v.5s0,0,0,0c0-.3.1-.3.1-.6,0,0-.2,0-.2.1ZM36.5,19.8h0s0,0,0,0h0s0,0,0,0ZM36.5,48.3h0s0-.2,0-.2h0s0,.2,0,.2ZM36.6,14.1h0s0,0,0,0h0s0,0,0,0ZM36.6,29.5h0s0,0,0,0h0s0,0,0,0ZM36.6,31.1h0s0-.3,0-.3h0s0,.3,0,.3ZM36.6,34.8c.3,0,.6-.2.6-.5-.4,0-.1.4-.6.3v.2ZM36.6,46.6h.6c0,0-.4-.3-.5-.3h0s0,.3,0,.3ZM36.7,20.4h0s0,0,0,0h0s0,0,0,0ZM36.8,16.9c0,0,.2,0,.2,0,.1,0,0,0,.1,0v-.3c0,0-.3,0-.3.2h0ZM36.8,26.8h0s0,0,0,0h0s0,0,0,0ZM36.8,28.5h0s0-.2,0-.2h0s0,.2,0,.2ZM36.9,32.3h.3c0-.1-.2-.2-.2-.2h-.1s0,.2,0,.2ZM37,48.4c0,0,.5-.1.5-.2,0-.1-.1-.3-.2-.3-.2,0-.2.4-.2.5ZM37.2,24.3h0s0,0,0,0h0s0,0,0,0ZM37.2,26.3h.2s0,0,0,0h-.2s0,0,0,0ZM37.2,33.1c0,0,.2-.1.2-.2s0-.1-.2-.1v.3ZM37.2,34.9h0s0,0,0,0h0s0,0,0,0ZM37.3,14h.2s0-.2,0-.2h-.2s0,.2,0,.2ZM37.3,16.5h.2s0,0,0,0h-.2s0,0,0,0ZM37.3,35h0s0,0,0,0h0s0,0,0,0ZM37.4,21h0s0,0,0,0h0s0,0,0,0ZM37.4,30.4h.2s0,0,0,0h-.2s0,0,0,0ZM37.5,46.6h.5c0,0,0-.4-.2-.4s-.3.3-.3.4ZM38.1,50c.2,0,.2-.2.3-.2.2,0,.2.2.4.2v-.3c0-.3-1-.7-1.3-.7,0,.3.5.2.5.5s-.2.2-.2.3c0,.2.2.3.3.3ZM37.5,17.9h0s0,0,0,0h0s0,0,0,0ZM37.5,32.6h.3s0-.1,0-.1h-.3s0,.1,0,.1ZM37.5,36.9c.3,0,1.1-.5,1.1-.7-.3,0-1.1.3-1.1.7ZM37.6,14.8h0s0,0,0,0h0s0,0,0,0ZM37.6,19.3h0s0-.2,0-.2h0s0,.2,0,.2ZM37.6,26.9h.2c0,0-.1-.2-.2-.2h0s0,.2,0,.2ZM37.6,34.6h0s0-.2,0-.2h0s0,.2,0,.2ZM38,44.5c.1,0,.2-.3.2-.4,0-.3-.3-.5-.6-.5,0,.1.1.8.3.8ZM37.9,37.2h.2s0,0,0,0h-.2s0,0,0,0ZM37.9,45.9h.2s0,0,0,0h-.2s0,0,0,0ZM38,16.8h.5c0-.3-.2-.3-.2-.5s0-.1,0-.3h-.2c0,.4-.2.4-.2.8ZM38.2,24.6v-.2s-.2,0-.2,0c0,.1.1.2.2.2ZM38,20.1c.1,0,.2-.2.2-.3h-.2s0,.3,0,.3ZM38.1,30.5c.2,0,.2-.3.2-.5-.2,0-.2.3-.2.5ZM38.3,19.5h0c.1-.2.2-.4.2-.6-.2,0-.3.2-.3.4s0,.2.1.2ZM38.2,41.8h0s0,0,0,0h0s0,0,0,0ZM38.3,20.8h0s0,0,0,0h0s0,0,0,0ZM38.4,28.8h.5c0-.1,0-.3-.2-.3s-.3.1-.3.2.1.1.1.1ZM38.3,39.2h.2s0-.2,0-.2h-.2s0,.2,0,.2ZM38.3,21.3h.2s0-.2,0-.2c0,0-.2.1-.2.2ZM38.6,44.9c.1,0,.2-.3.2-.5h-.5c0,.1.1.5.3.5ZM38.4,40h.2s0,0,0,0h-.2s0,0,0,0ZM38.4,42.6h0s0,0,0,0h0s0,0,0,0ZM38.5,15.3h.2s0-.2,0-.2h-.2s0,.2,0,.2ZM38.5,18.1h.2s0,0,0,0h-.2s0,0,0,0ZM38.5,23.8h0s0-.1,0-.1h0s0,.1,0,.1ZM38.5,29.7h0s0-.2,0-.2h0s0,.2,0,.2ZM38.5,37.1h0s0-.2,0-.2h0s0,.2,0,.2ZM38.5,46h.3c.2,0,.5-.5.5-.7h0c.2,0,.2,0,.2,0v-.7c-.3,0-1,1-1,1.3ZM38.6,25.9h0s0,0,0,0h0s0,0,0,0ZM38.9,30.9c.1,0,.2,0,.2-.1v-.6c0,0,.1,0,.1-.1,0-.1-.2-.1-.3-.1-.2,0-.4,0-.4.2s0,.1,0,.3,0,.1,0,.2.3.2.3.2ZM38.6,31.4h.3c0,0-.1-.2-.2-.2-.1,0-.2.1-.2.2ZM39,33.5c0-.2-.2-.5-.4-.5,0,.3,0,.5.4.5ZM38.6,37.9h0s0,0,0,0h0s0,0,0,0ZM38.7,26.1h0s0,0,0,0h0s0,0,0,0ZM39.1,34.1c.3,0,.3-.2.7-.2h0c-.3-.1-.3,0-.6,0s-.2-.1-.4-.1c0,.3.1.3.3.3ZM39,36.6c0,0,.2-.1.2-.2s0-.1-.2-.1v.3ZM39.1,43.3c.2,0,.2-.2.2-.3-.2,0-.2.2-.2.3ZM39.1,31.4h.4s0,0,0,0h-.4s0,0,0,0ZM39.1,39c0,.3.6.5.8.5,0-.5-.4-.6-.8-.6h0ZM39.1,43.8h.2s0-.2,0-.2h-.2s0,.2,0,.2ZM39.5,47.9h.1c0-.3-.2-.6-.5-.6v.3s.3.3.3.3ZM39.2,16.4h0s0-.2,0-.2h0s0,.2,0,.2ZM39.2,25.1h.2c0-.1-.1-.2-.2-.2v.2ZM39.2,26.5h.6c0-.4-.1-.3-.2-.6h-.4s0,.6,0,.6ZM39.9,22.4c.2,0,.5-.2.5-.4s0-.4-.2-.4h-.7c-.2,0-.1.2-.1.3,0,.2.3.5.6.5ZM39.3,32.3h0s0-.2,0-.2h0s0,.2,0,.2ZM39.3,36.9h.2s0,0,0,0h-.2s0,0,0,0ZM39.5,29.6h.2s0,0,0,0h-.2s0,0,0,0ZM39.5,35.7h0s0,0,0,0h0s0,0,0,0ZM39.7,21.1c.1,0,.3-.1.3-.2s0-.2-.2-.2-.2.1-.2.2,0,.2.2.2ZM39.6,37.1h0s0,0,0,0h0s0,0,0,0ZM39.6,47.2h.3s0-.2,0-.2h-.3s0,.2,0,.2ZM39.7,49.1h.2c0,0,0-.2-.2-.2h0s0,.2,0,.2ZM39.9,42.4c.2,0,.4-.2.4-.3-.2,0-.4.2-.4.3ZM39.9,43.9h.3s0-.2,0-.2c-.1,0-.3,0-.3.2ZM40,37.8h.5c0,0,.2,0,.2,0,.2,0,.2,0,.3,0,0-.1-.2-.4-.3-.4s-.7.3-.7.4ZM40,48.9h.3s0-.2,0-.2c0,0-.3.1-.3.2ZM40.1,44.5h0s0-.2,0-.2h0s0,.2,0,.2ZM40.2,34.8h0s0-.2,0-.2h0s0,.2,0,.2ZM40.6,17.8c0-.2-.1-.3-.3-.3,0,.2.1.3.3.3ZM40.3,33.1h.2c0,0-.1-.2-.2-.2h0s0,.2,0,.2ZM40.4,15.7c.1,0,.2-.1.2-.2h-.2s0,.2,0,.2ZM40.4,20.3h.2s0-.2,0-.2h-.2s0,.2,0,.2ZM40.4,41.9h0s0,0,0,0h0s0,0,0,0ZM40.5,22.8h0s0-.3,0-.3h0s0,.3,0,.3ZM40.5,46.3h0s0,0,0,0h0s0,0,0,0ZM40.7,19.7h0s0,0,0,0h0s0,0,0,0ZM40.7,22.3h0s0-.2,0-.2h0s0,.2,0,.2ZM40.7,23h0s0,0,0,0h0s0,0,0,0ZM40.7,39.1h.3s0,0,0,0h-.3s0,0,0,0ZM40.8,34.5h.3s0-.2,0-.2c-.1,0-.3,0-.3.2ZM41,45.7v-.2s-.2,0-.2,0c0,.1.1.2.2.2ZM40.8,31.4h0s0,0,0,0h0s0,0,0,0ZM40.9,33.1h.4c0-.3-.2-.3-.2-.7h0c0,.3-.2.4-.2.7ZM40.9,19.2h0s0,0,0,0h0s0,0,0,0ZM41,25.4h0s0,0,0,0h0s0,0,0,0ZM41,37.1h0s0,0,0,0h0s0,0,0,0ZM41.4,20.5c.1,0,.2-.1.2-.2,0-.2-.2-.2-.3-.2,0,0,0,.5.2.5ZM41.4,16.8v-.3s-.2,0-.2,0c0,.1,0,.3.2.3ZM41.3,23.2h0s0-.2,0-.2h0s0,.2,0,.2ZM41.3,35.8h0s0,0,0,0h0s0,0,0,0ZM41.4,33.8c.1,0,.2-.1.2-.2h-.2s0,.2,0,.2ZM41.5,43.1h.2s0,0,0,0h-.2s0,0,0,0ZM42,32.2c0-.3-.2-.4-.4-.4,0,.2.1.4.4.4ZM41.7,31.4h.2s0-.2,0-.2h-.2s0,.2,0,.2ZM41.9,18c0,0,.2,0,.2,0v-.5c.2,0,.2,0,.2-.2s0-.2-.1-.2h0c0,.1-.3.5-.3.5,0,0,0,.3.1.3ZM41.8,40.1h0s0-.3,0-.3h0s0,.3,0,.3ZM42,35.5h0s0,0,0,0h0s0,0,0,0ZM42.1,27.3c.2,0,.3-.1.3-.3-.2,0-.3.1-.3.3ZM42.1,35.6h0s0,0,0,0h0s0,0,0,0ZM42.7,29.5v-.2s-.5,0-.5,0c0,.2.3.2.5.2ZM42.3,24.5h.1s0,0,0,0h-.1s0,0,0,0ZM42.5,28.3h.2s0-.2,0-.2h-.2s0,.2,0,.2ZM42.6,37.2h0s0-.2,0-.2h0s0,.2,0,.2ZM42.7,23.2l.2.2h0c0,0,.1-.1.1-.1v-.7s-.2,0-.2,0c0,.5-.2.2-.2.5h0ZM42.7,38.1h0s0-.2,0-.2h0s0,.2,0,.2ZM42.8,39.3h0s0,0,0,0h0s0,0,0,0ZM43.1,27.8h0s0,0,0,0h0s0,0,0,0Z"/>
</svg>